<svg width="150" height="150" viewBox="0 0 150 150" fill="none" xmlns="http://www.w3.org/2000/svg">
    <defs>
        <clipPath id="clip0_286_82">
            <rect width="150" height="150" fill="white"/>
        </clipPath>
    </defs>
    <g clip-path="url(#clip0_286_82)">
        <path d="M75 150C116.421 150 150 116.421 150 75C150 33.5786 116.421 0 75 0C33.5786 0 0 33.5786 0 75C0 116.421 33.5786 150 75 150Z" fill="#F3BE6A"/>
        <path d="M55.8359 108.833L94.4006 147.397C126.341 138.88 150 109.779 150 75C150 74.2902 150 73.5805 150 72.8707L119.716 44.9527L55.8359 108.833Z" fill="#E4A248"/>
        <path d="M76.8928 91.7981C80.2052 95.1104 80.2052 100.789 76.8928 104.101L70.0317 110.962C66.7193 114.274 61.0411 114.274 57.7288 110.962L27.6815 80.6782C24.3692 77.3659 24.3692 71.6877 27.6815 68.3754L34.5427 61.5142C37.855 58.2019 43.5332 58.2019 46.8455 61.5142L76.8928 91.7981Z" fill="white"/>
        <path d="M103.155 39.511C106.467 36.1987 112.145 36.1987 115.457 39.511L122.319 46.3722C125.631 49.6845 125.631 55.3628 122.319 58.6751L70.2681 110.489C66.9558 113.801 61.2776 113.801 57.9653 110.489L51.1041 103.628C47.7918 100.315 47.7918 94.6372 51.1041 91.3249L103.155 39.511Z" fill="white"/>
    </g>
</svg>
