<svg width="25" height="25" viewBox="0 0 25 25" fill="none" xmlns="http://www.w3.org/2000/svg">
<path d="M12.5 25C5.5957 25 0 19.4043 0 12.5C0 5.5957 5.5957 0 12.5 0C19.4043 0 25 5.5957 25 12.5C25 19.4043 19.4043 25 12.5 25ZM11.3281 12.5C11.3281 12.8906 11.5234 13.2568 11.8506 13.4326L16.5381 16.5576C17.0752 16.958 17.8027 16.8115 18.1201 16.2744C18.5205 15.7373 18.374 15.0098 17.8369 14.6484L13.6719 11.875V5.85938C13.6719 5.20996 13.1494 4.6875 12.4561 4.6875C11.8506 4.6875 11.2842 5.20996 11.2842 5.85938L11.3281 12.5Z" fill="#0B2655"/>
</svg>
