<svg width="15" height="15" viewBox="0 0 15 15" fill="none" xmlns="http://www.w3.org/2000/svg">
<path d="M3.33358 0C1.49233 0 0 1.46906 0 3.28124C0 4.83279 1.09453 6.1331 2.56463 6.47435L2.01237 14.0643C2.00206 14.1847 2.02148 14.3057 2.0694 14.4194C2.11732 14.5332 2.19269 14.6373 2.29076 14.7253C2.38882 14.8132 2.50744 14.883 2.63913 14.9303C2.77081 14.9776 2.91268 15.0013 3.05578 14.9999H3.61138C4.22254 14.9999 4.69146 14.579 4.65479 14.0643L4.10253 6.47435C5.57264 6.13216 6.66716 4.83279 6.66716 3.28124C6.66716 1.46906 5.17483 0 3.33358 0ZM14.5377 0L13.6121 4.68748H12.9176L12.4543 0H11.9909L11.5275 4.68748H10.833L9.9074 0H9.44403V6.09373C9.44403 6.21805 9.50257 6.33728 9.60676 6.42518C9.71096 6.51309 9.85228 6.56248 9.99963 6.56248H11.4464L10.9008 14.0643C10.8905 14.1847 10.9099 14.3057 10.9578 14.4194C11.0058 14.5332 11.0811 14.6373 11.1792 14.7253C11.2773 14.8132 11.3959 14.883 11.5276 14.9303C11.6592 14.9776 11.8011 15.0013 11.9442 14.9999H12.4998C13.111 14.9999 13.5799 14.579 13.5432 14.0643L12.9976 6.56248H14.4444C14.5918 6.56248 14.7331 6.51309 14.8373 6.42518C14.9415 6.33728 15 6.21805 15 6.09373V0H14.5366H14.5377Z" fill="#2D80ED"/>
</svg>
