<?xml version="1.0" encoding="utf-8"?>
<!-- Generator: Adobe Illustrator 23.0.0, SVG Export Plug-In . SVG Version: 6.00 Build 0)  -->
<svg version="1.1" id="Layer_1" xmlns="http://www.w3.org/2000/svg" xmlns:xlink="http://www.w3.org/1999/xlink" x="0px" y="0px"
	 viewBox="0 0 1080 1080" style="enable-background:new 0 0 1080 1080;" xml:space="preserve">

<g>
	<rect x="1.5" class="st0" width="1076.9" height="1080"/>
	<g>
		<g>
			<path class="st1" d="M539.9,422.4l-0.5,419.8l117.4,0.1c67.1,0.1,121.5-54.2,121.6-121.3l0.2-176.8
				c0.1-67.1-54.2-121.5-121.3-121.6L539.9,422.4z"/>
		</g>
		<g>
			<path class="st1" d="M496.9,422.4l0.6,419.8L380,842.3C313,842.4,258.5,788.1,258.4,721l-0.3-176.9
				c-0.1-67.1,54.3-121.6,121.4-121.7L496.9,422.4z"/>
		</g>
		<g>
			
				<image style="overflow:visible;opacity:0.35;" width="697" height="161" xlink:href="39939702.png"  transform="matrix(1 0 0 1 170.0646 552.0646)">
			</image>
			<g>
				<polygon class="st2" points="817.4,663.5 219.3,662.9 219.2,601.1 817.5,601.8 				"/>
			</g>
		</g>
		<g>
			<path class="st1" d="M962.7,613.6l25.1,10.5l19.4,8.2l-19.4,8.2L962.7,651v-18.7V613.6 M955.7,603.1v29.2v29.2l34.8-14.6
				l34.8-14.6l-34.8-14.6L955.7,603.1L955.7,603.1z"/>
		</g>
		<path class="st1" d="M219.1,514.9l0.3,234.9l-43.6,0.1c-39.8,0-72-32.2-72.1-71.9l-0.1-91c0-39.8,32.2-72,71.9-72.1L219.1,514.9z"
			/>
		<g>
			<path class="st3" d="M161.1,572.5c-21.5,0.1-43.6,0.2-63.5-8s-37.1-26.7-36.9-48.2c0.1-8.7,3.2-17.5,9.4-23.6s15.8-8.8,24-6"/>
			
				<ellipse transform="matrix(0.9499 -0.3126 0.3126 0.9499 -147.3718 53.8691)" class="st1" cx="94.3" cy="486.5" rx="5.2" ry="11.3"/>
		</g>
		<path class="st1" d="M817.8,514.9l-0.3,234.9l43.6,0.1c39.8,0,72-32.2,72.1-71.9l0.1-91c0-39.8-32.2-72-71.9-72.1L817.8,514.9z"/>
		<g>
			<path class="st2" d="M362.9,382.5L362.9,382.5L304.4,310c-16.8-20.8-17.4-50.7-0.6-71.5c8.2-10.2,20-17.6,34.2-20.1
				c0.6-0.1,1.2-0.2,1.7-0.3l0,0c0.6-0.1,1.2-0.2,1.7-0.2c14.4-1.6,27.7,2.3,38.4,9.9c21.9,15.4,29.5,44.3,19.1,68.9L362.9,382.5z"
				/>
			<path class="st2" d="M381.8,383.8L381.8,383.8l26.2-64.4c7.5-18.5,26.8-29.7,46.5-26.3c9.6,1.7,18.8,6.7,25.5,15.1
				c0.3,0.3,0.5,0.7,0.8,1l0,0c0.3,0.4,0.5,0.7,0.8,1.1c6.2,8.8,8.5,19,7.5,28.7c-2.1,19.9-18.3,35.3-38.1,37.4L381.8,383.8z"/>
		</g>
	</g>
</g>
	<style type="text/css">
	.st0{fill:none;}
	.st1{fill:#F19E2E;}
	.st2{fill:#FFFFFF;}
	.st3{fill:none;stroke:#F19E2E;stroke-width:6.9908;stroke-miterlimit:10;}
	</style>
</svg>
