<svg width="25" height="25" viewBox="0 0 25 25" fill="none" xmlns="http://www.w3.org/2000/svg">
<path d="M25 22.2222V2.77778C25 2.04107 24.7073 1.33453 24.1864 0.813592C23.6655 0.292658 22.9589 0 22.2222 0H2.77778C2.04107 0 1.33453 0.292658 0.813592 0.813592C0.292658 1.33453 0 2.04107 0 2.77778V22.2222C0 22.9589 0.292658 23.6655 0.813592 24.1864C1.33453 24.7073 2.04107 25 2.77778 25H22.2222C22.9589 25 23.6655 24.7073 24.1864 24.1864C24.7073 23.6655 25 22.9589 25 22.2222ZM8.33333 20.8333H5.55556V12.5H8.33333V20.8333ZM13.8889 20.8333H11.1111V5.55556H13.8889V20.8333ZM19.4444 20.8333H16.6667V9.72222H19.4444V20.8333Z" fill="#0B2655"/>
</svg>
