<svg width="13" height="15" viewBox="0 0 13 15" fill="none" xmlns="http://www.w3.org/2000/svg">
<path d="M8.96367 3.37231C9.46067 3.37231 9.93731 3.19466 10.2887 2.87845C10.6402 2.56223 10.8376 2.13335 10.8376 1.68615C10.8376 1.23896 10.6402 0.810078 10.2887 0.493863C9.93731 0.177648 9.46067 0 8.96367 0C8.46667 0 7.99002 0.177648 7.63859 0.493863C7.28716 0.810078 7.08972 1.23896 7.08972 1.68615C7.08972 2.13335 7.28716 2.56223 7.63859 2.87845C7.99002 3.19466 8.46667 3.37231 8.96367 3.37231V3.37231ZM5.19912 4.97678C4.67983 5.09294 4.32545 5.26755 4.03936 5.48412C3.61043 5.80936 3.26396 6.27849 2.79589 7.0159C2.68627 7.18847 2.50496 7.31479 2.29183 7.36707C2.07871 7.41935 1.85123 7.39331 1.65945 7.29468C1.46766 7.19605 1.32727 7.0329 1.26917 6.84114C1.21106 6.64937 1.24 6.44469 1.34962 6.27212C1.81561 5.53883 2.28659 4.85275 2.96663 4.33791C3.67623 3.79984 4.54491 3.49559 5.71633 3.3783C6.20605 3.32959 6.74492 3.33934 7.25005 3.54205C7.78017 3.75525 8.16745 4.13707 8.43147 4.64742C8.7871 5.33424 9.05154 5.74304 9.26308 5.97985C9.36511 6.09376 9.43632 6.14659 9.47671 6.1702C9.50878 6.18894 9.52252 6.19043 9.52752 6.19118H9.52793C9.56416 6.19493 9.6816 6.19118 10.0264 6.05367C10.1767 5.99372 10.3408 5.92177 10.5415 5.83372L10.5894 5.81274C10.8349 5.70374 11.0826 5.5988 11.3323 5.49799C11.534 5.41834 11.7625 5.41378 11.9678 5.48532C12.1732 5.55686 12.3387 5.69867 12.4282 5.87973C12.5176 6.06079 12.5238 6.26636 12.4452 6.45147C12.3667 6.63659 12.2098 6.78618 12.009 6.86752C11.7776 6.96099 11.5481 7.0583 11.3207 7.15941L11.2661 7.18339C11.0741 7.2677 10.8809 7.35276 10.6998 7.4247C10.325 7.57383 9.84609 7.7357 9.3268 7.67912C8.77877 7.61917 8.35651 7.34077 8.00879 6.96719L6.87068 8.94299L8.44479 10.7858C8.53849 10.8959 8.59637 11.0271 8.61262 11.165L8.95909 14.1611C8.97229 14.2598 8.96353 14.3599 8.93331 14.4555C8.9031 14.5511 8.85204 14.6404 8.7831 14.7181C8.71416 14.7958 8.62873 14.8604 8.53178 14.9081C8.43483 14.9558 8.3283 14.9857 8.2184 14.996C8.10849 15.0063 7.99741 14.9968 7.89163 14.9681C7.78584 14.9393 7.68746 14.892 7.60222 14.8287C7.51698 14.7654 7.44658 14.6875 7.39513 14.5996C7.34367 14.5116 7.31219 14.4152 7.30252 14.3162L6.9802 11.531L6.02407 10.4114L6.01574 10.4253L5.98076 10.3609L4.21426 8.29251C4.12742 8.19085 4.07102 8.07084 4.05046 7.94396C4.0299 7.81708 4.04586 7.68758 4.09682 7.56784L5.19912 4.97678V4.97678Z" fill="#EB5757"/>
<path d="M3.93817 9.37015L3.32518 10.854L0.909876 10.6816C0.800064 10.6724 0.68932 10.683 0.58407 10.7126C0.478821 10.7423 0.381162 10.7904 0.296762 10.8543C0.212362 10.9182 0.142901 10.9965 0.0924107 11.0847C0.04192 11.1729 0.011405 11.2693 0.00263664 11.3682C-0.00613175 11.4671 0.00702096 11.5666 0.0413317 11.6609C0.0756424 11.7552 0.130427 11.8425 0.202508 11.9176C0.274589 11.9927 0.362529 12.0542 0.461226 12.0985C0.559922 12.1427 0.66741 12.1689 0.777451 12.1755L3.82074 12.3929C4.00135 12.4058 4.18172 12.3654 4.3345 12.2777C4.48729 12.1901 4.60414 12.06 4.66734 11.9072L5.13583 10.7727L3.93817 9.37015Z" fill="#EB5757"/>
</svg>
